<?xml version="1.0" encoding="UTF-8" standalone="no"?>
<!-- Created with Inkscape (http://www.inkscape.org/) -->

<svg
   version="1.1"
   id="svg1"
   width="116"
   height="133.33333"
   viewBox="0 0 116 133.33333"
   xmlns="http://www.w3.org/2000/svg"
   xmlns:svg="http://www.w3.org/2000/svg">
  <defs
     id="defs1" />
  <g
     id="g1">
    <path
       style="display:inline;fill:#000000"
       d="m 2.6666667,107.57533 c 0,-24.957441 1.3616157,-34.230223 5.9125397,-40.265167 1.9604846,-2.599784 2.0438376,-2.584113 5.0404556,0.947647 1.675852,1.97513 6.758155,5.731103 11.294006,8.346607 11.230735,6.475969 13.752999,9.958922 13.752999,18.991292 0,13.565961 -9.688164,27.727841 -23.15066,33.840981 -3.033804,1.37761 -7.166007,2.51792 -9.1826737,2.53402 l -3.6666666,0.0293 z m 13.5030593,18.62745 c 1.926682,-0.46097 4.490514,-2.34518 5.697404,-4.18712 1.206889,-1.84195 3.01632,-3.349 4.020956,-3.349 1.946792,0 4.032219,-3.61533 3.613082,-6.2637 -0.139013,-0.87836 0.890176,-2.2087 2.287086,-2.95631 2.448167,-1.31022 5.545079,-10.266885 5.545079,-16.03708 0,-1.508599 -1.2,-3.942907 -2.666666,-5.409573 C 33.2,86.53333 32,84.745524 32,84.027095 32,82.671596 22.481631,77.33333 20.064715,77.33333 c -0.75617,0 -3.09503,-1.8 -5.197468,-3.999999 C 10.220879,68.471353 8.8214162,68.281633 9.6519546,72.626314 9.9981762,74.437455 9.7669989,75.601351 9.1382274,75.212748 6.4902042,73.57618 5.3333333,82.973787 5.3333333,106.12104 v 24.6141 L 9,128.88802 c 2.016667,-1.01591 5.243043,-2.22428 7.169726,-2.68524 z m 4.496941,3.849 c 11.543056,-9.10801 18.045707,-18.43002 20.608282,-29.54346 1.326322,-5.752028 1.237005,-7.630919 -0.568125,-11.951203 -2.898281,-6.936563 -5.520279,-9.585557 -13.373491,-13.511185 -8.151591,-4.074781 -14,-9.373827 -14,-12.684928 0,-2.2761 0.452059,-2.208511 5.666667,0.84724 7.788227,4.563886 14.947147,5.501185 22.333333,2.924044 3.3,-1.151415 6.415389,-2.102214 6.923086,-2.112886 0.507697,-0.01067 2.607697,2.979985 4.666667,6.645906 2.058969,3.665921 4.098223,6.665921 4.531675,6.666667 0.433453,7.45e-4 2.449576,-3.051332 4.480274,-6.782394 2.625264,-4.823474 4.323973,-6.60007 5.878572,-6.148109 14.235952,4.138755 14.638784,4.176045 21.479748,1.988392 3.685965,-1.178724 7.017773,-1.631807 7.404017,-1.006851 0.940969,1.522519 -2.596964,18.200099 -5.164486,24.345043 -4.4063,10.545764 -14.904519,22.892434 -25.984497,30.559674 -10.333683,7.15081 -20.912844,10.56186 -34.881722,11.24695 -11.716427,0.57462 -12.466617,0.46337 -10,-1.4829 z m 12.771929,-1.71845 c 0.0579,-1.28333 0.373705,-1.68591 0.701799,-0.89461 0.968149,2.33499 15.452754,-0.16673 17.546886,-3.03063 1.777132,-2.43037 2.196324,-2.6064 6.925076,-2.90809 1.436797,-0.0917 4.286797,-1.65843 6.333334,-3.48169 2.046537,-1.82325 6.270976,-5.49307 9.387642,-8.15515 C 77.45,107.20109 80,104.52376 80,103.91354 c 0,-0.61022 1.488759,-2.71588 3.308352,-4.679257 1.819594,-1.963374 3.014079,-4.045915 2.654412,-4.627869 -0.359667,-0.581954 0.193522,-1.90556 1.229309,-2.941347 2.504625,-2.504625 6.403193,-14.162565 5.321463,-15.912841 -0.470347,-0.761037 -0.09088,-1.856068 0.843267,-2.4334 0.958009,-0.592083 1.316047,-2.046204 0.821285,-3.335534 -0.646783,-1.685488 -1.66082,-2.025552 -3.860957,-1.294798 -6.25209,2.076572 -20.639485,0.785065 -21.690973,-1.947123 -0.532715,-1.384204 -1.286907,-0.872967 -2.683556,1.819076 C 64.874171,70.61985 64,72.805318 64,73.417044 c 0,0.611725 -1.552378,2.787272 -3.449729,4.834547 l -3.449729,3.72232 -2.883605,-3.958552 C 52.630955,75.838156 51.258333,73.594025 51.166667,73.028402 51.075,72.46278 50.925,71.399997 50.833333,70.666664 c -0.09167,-0.733333 -1.047835,-1.333333 -2.12482,-1.333333 -1.255511,0 -1.694893,-0.837268 -1.224486,-2.333334 0.695365,-2.21152 0.634093,-2.212602 -1.173683,-0.02072 -1.049042,1.271934 -2.164292,2.055665 -2.478333,1.741624 -0.553368,-0.553367 -10.542187,1.317701 -14.405929,2.698466 -1.258741,0.449829 0.355996,2.205744 4.748899,5.164097 5.082195,3.42255 7.030815,5.733034 8.240584,9.770884 C 44.480233,93.245596 44.337916,99.4038 41.961551,106 c -1.05677,2.93333 -1.930435,6.68333 -1.941476,8.33333 -0.01213,1.81301 -0.838318,3 -2.088111,3 -1.137419,0 -2.945471,2.1 -4.017893,4.66667 -1.072422,2.56666 -2.727128,4.66666 -3.677125,4.66666 -0.949997,0 -2.891945,0.88092 -4.31544,1.9576 -2.425425,1.8345 -2.273766,1.96026 2.411827,2 3.850148,0.0327 5.024208,-0.4942 5.105263,-2.29093 z M 26.054825,69.422039 c -0.483379,-0.782123 -1.89346,-1.40296 -3.133514,-1.379637 -1.979531,0.03723 -1.941133,0.27959 0.314688,1.986223 2.740102,2.073014 4.271271,1.74352 2.818826,-0.606586 z m 35.312889,57.726341 c 0.01891,-0.63161 3.066705,-3.20586 6.77288,-5.72054 15.463586,-10.49225 26.625337,-27.707986 29.793733,-45.953471 1.982221,-11.41479 2.184613,-11.856683 4.945393,-10.797274 3.79304,1.455525 6.45361,8.195782 6.45361,16.349482 0,16.312225 -14.941277,36.725853 -31.383246,42.877583 -8.4881,3.1758 -16.627999,4.76832 -16.58237,3.24422 z m 15.347064,-5.8929 c 0.390432,-0.63173 -1.111774,-0.51357 -3.338235,0.26258 -2.226462,0.77615 -4.367556,1.92805 -4.757988,2.55978 -0.390431,0.63173 1.111775,0.51357 3.338236,-0.26257 2.226461,-0.77615 4.367555,-1.92806 4.757987,-2.55979 z m 16.565607,-10.79101 c 4.599124,-4.67225 6.250862,-7.30232 5.76142,-9.17395 -0.468813,-1.79274 -0.01825,-2.623857 1.422445,-2.623857 2.67711,0 5.31345,-4.82339 4.44711,-8.13631 -0.36394,-1.391696 -0.18465,-2.530356 0.39841,-2.530356 1.58107,0 2.90699,-8.672114 1.92446,-12.586831 -0.5166,-2.058279 -1.7961,-3.413169 -3.22327,-3.413169 -2.79172,0 -4.33342,4.47754 -2.25673,6.554229 1.0388,1.038806 1.03555,1.445771 -0.0116,1.445771 -2.247916,0 -3.381377,4.316999 -1.45448,5.53965 1.27393,0.808329 1.13793,1.091405 -0.531653,1.106599 -2.622442,0.02387 -4.288483,4.243861 -3.123981,7.912882 0.580953,1.830418 0.03663,2.805298 -1.911564,3.423633 -3.639771,1.155218 -6.13957,5.798639 -4.177826,7.760379 0.80127,0.80127 1.438609,2.08686 1.416309,2.85686 -0.0223,0.77 -0.650859,0.35224 -1.3968,-0.92836 -1.222662,-2.099 -1.875342,-1.84807 -6.626121,2.54751 -2.898427,2.68173 -5.269867,5.94828 -5.269867,7.259 0,3.95719 7.230348,0.48707 14.613718,-7.01368 z M 104,68.745353 c 0,-0.323387 -0.6,-0.958797 -1.33333,-1.412022 -0.73334,-0.453225 -1.33334,-0.188635 -1.33334,0.587977 0,0.776613 0.6,1.412023 1.33334,1.412023 0.73333,0 1.33333,-0.26459 1.33333,-0.587978 z m -50.472735,-2.018687 -2.963778,-5.273331 3.05159,-4.710164 c 1.678374,-2.59059 3.35159,-4.710163 3.718256,-4.710163 0.366667,0 2.025939,2.098302 3.68727,4.662893 l 3.020604,4.662893 -2.714369,5.320602 c -1.492902,2.926331 -3.191689,5.320601 -3.775082,5.320601 -0.583392,0 -2.394413,-2.372999 -4.024491,-5.273331 z m 6.77339,-3.732373 c 0.469427,-1.795091 -0.223533,-2.350143 -2.979809,-2.386789 -2.80555,-0.0373 -3.454895,0.474555 -2.967322,2.339038 0.80277,3.069797 5.147725,3.104683 5.947131,0.04775 z m -1.633988,-5.660962 c 0,-0.733333 -0.6,-1.333333 -1.333334,-1.333333 -0.733333,0 -1.333333,0.6 -1.333333,1.333333 0,0.733333 0.6,1.333333 1.333333,1.333333 0.733334,0 1.333334,-0.6 1.333334,-1.333333 z m -33.754928,6.128554 c -9.795487,-3.6096 -14.626025,-10.697818 -14.626025,-21.461887 0,-14.895047 11.749791,-24.930438 26.584753,-22.705798 7.323289,1.098195 15.585967,8.008727 17.877408,14.951862 6.000489,18.18166 -11.985505,35.793714 -29.836136,29.215823 z m 17.586677,-3.080896 c 0.459205,-0.683193 1.884917,-1.629573 3.168251,-2.103067 C 46.95,57.804428 48,56.562386 48,55.517829 c 0,-1.044557 0.889885,-2.240675 1.977522,-2.65804 2.382845,-0.914384 1.20282,-4.859791 -1.453507,-4.859791 -1.021542,0 -1.857348,1.2 -1.857348,2.666667 0,1.474748 -0.888889,2.666666 -1.988702,2.666666 -1.093786,0 -2.643871,1.05 -3.444634,2.333334 -1.121651,1.7976 -3.111361,2.292118 -8.665992,2.153824 C 26.309185,57.66468 24.837321,57.084362 21.418932,53.424965 18.60736,50.415167 17.364151,47.608778 17.073625,43.615976 16.777677,39.548655 16.03018,37.902271 14.333333,37.580402 12.418195,37.217127 12,38.118696 12,42.610746 c 0,3.634852 0.671701,5.730701 2,6.240417 1.1,0.42211 2,1.783279 2,3.02482 0,2.970254 2.587967,5.457348 5.678689,5.457348 1.363279,0 2.13066,0.563124 1.705291,1.251386 -0.42537,0.688263 0.194846,1.793244 1.378258,2.455515 2.715679,1.51977 16.618913,1.002995 17.736178,-0.659243 z m -1.852198,-7.823535 c 1.770484,-1.160066 3.897083,-4.163635 4.725776,-6.674599 2.146625,-6.504338 -1.54054,-13.812197 -8.233569,-16.318706 -12.871546,-4.820333 -23.017668,11.428402 -13.240989,21.20508 4.50064,4.50064 11.472985,5.24506 16.748782,1.788225 z M 28.532881,51.418456 c -4.635113,-2.005499 -5.866214,-4.264478 -5.866214,-10.764067 0,-5.094411 4.94887,-9.987724 10.101122,-9.987724 3.342883,0 6.01517,2.850125 3.468279,3.699089 -0.863171,0.287723 -1.569401,1.673134 -1.569401,3.078689 0,2.827624 4.743662,3.657901 5.634245,0.986154 C 41.163794,35.841949 44,38.582045 44,42.004336 c 0,3.673298 -4.774729,9.453345 -8.666667,10.491433 -1.466666,0.3912 -4.52687,-0.09359 -6.800452,-1.077313 z M 36,48.708511 c 0,-1.110874 0.790939,-1.654642 1.827944,-1.256706 1.005368,0.385797 2.195253,-0.255747 2.644188,-1.425651 0.822833,-2.144269 -0.250447,-2.902315 -5.138799,-3.629478 -1.60947,-0.239415 -2.936157,-1.718173 -3.346427,-3.730011 -0.904947,-4.437576 -6.036137,-4.728408 -5.881038,-0.333333 0.05823,1.65 -0.391773,3 -1,3 -0.608227,0 -1.105868,0.664193 -1.105868,1.475985 0,0.811792 0.832089,1.156682 1.849087,0.766424 1.29489,-0.496896 1.648941,0.0558 1.181296,1.844071 -0.469826,1.796618 0.266621,2.927777 2.484247,3.815728 C 34.110759,51.075858 36,50.92233 36,48.708511 Z m 17.077719,-7.041846 c -0.132427,-4.237603 -1.082203,-7.326047 -2.870238,-9.333333 -1.469775,-1.65 -2.194263,-3 -1.609973,-3 0.584289,0 0.315411,-0.9 -0.597508,-2 -1.752368,-2.111474 -8,-2.793494 -8,-0.873316 0,1.452058 4.023819,4.907541 6.896503,5.922421 1.520991,0.537346 1.990029,1.704793 1.475468,3.672477 -0.451441,1.726315 -0.0083,3.357119 1.103498,4.061145 1.330246,0.842339 1.384544,1.182237 0.191198,1.196856 -2.118403,0.02595 -2.157331,2.996419 -0.06667,5.087083 2.850192,2.850192 3.679438,1.721551 3.477719,-4.733333 z M 20.735693,32.333332 c 0.561548,-1.283333 0.937413,-2.74832 0.835254,-3.255525 -0.160429,-0.796516 3.855605,-1.596314 15.09572,-3.006332 1.466666,-0.183986 2.875367,-1.401696 3.130445,-2.706022 0.413604,-2.114941 -0.419675,-2.307597 -7.702393,-1.780813 -6.480707,0.468772 -8.587193,1.191781 -10.20605,3.503023 -1.121934,1.601785 -2.841664,2.912336 -3.821623,2.912336 -1.683352,0 -3.400379,2.74814 -3.400379,5.442383 0,2.201409 5.022037,1.283685 6.069026,-1.10905 z M 74,63.404029 C 63.403693,59.563805 56.829266,47.400942 59.291117,36.192208 60.725402,29.66195 69.018267,21.616219 76.217845,19.76991 96.544904,14.5571 112.60302,37.506283 100.8411,54.959803 95.19342,63.340392 83.754368,66.939125 74,63.404029 Z m 18.228983,-3.860556 c 0.680271,-1.215578 1.860868,-2.210142 2.623547,-2.210142 2.393062,0 6.40007,-5.89162 5.66767,-8.333333 -0.38495,-1.283333 -0.0595,-2.333333 0.72328,-2.333333 2.26721,0 1.74883,-10.256404 -0.56322,-11.14362 -2.427781,-0.931626 -4.021567,4.274125 -2.799401,9.14362 0.494688,1.970996 0.264193,3.333333 -0.563969,3.333333 -0.770321,0 -1.785917,1.004165 -2.256881,2.231478 -1.916,4.993014 -5.612818,7.101855 -12.449617,7.101855 -3.697618,0 -7.447618,-0.609318 -8.333334,-1.35404 -7.868438,-6.615893 -8.631199,-7.679725 -7.973427,-11.120638 0.372261,-1.947355 0.02798,-4.322472 -0.765072,-5.278039 -1.064633,-1.282804 -0.844035,-2.314224 0.843099,-3.941977 1.256755,-1.21252 4.015188,-3.959396 6.129851,-6.10417 3.248372,-3.294624 4.614771,-3.796318 8.807792,-3.233916 2.773823,0.372048 6.357895,-0.08088 8.125419,-1.026831 3.033996,-1.623745 3.055346,-1.734354 0.525541,-2.722731 -4.708662,-1.839641 -14.856929,-1.362424 -16.636928,0.782343 -0.912919,1.1 -2.37355,2 -3.245848,2 -2.097532,0 -7.753059,7.717068 -6.793438,9.269767 0.412198,0.666951 0.139664,1.589507 -0.605631,2.050125 -1.754021,1.084044 -1.773692,11.346774 -0.02175,11.346774 C 63.4,47.999998 64,49.135805 64,50.524013 c 0,1.388208 0.905565,2.871513 2.012367,3.296232 1.106802,0.42472 1.856802,1.505557 1.666667,2.401859 -0.190136,0.896303 1.454299,2.04201 3.654299,2.546015 2.2,0.504005 3.4,0.996549 2.666667,1.094543 -0.733333,0.09799 -0.433333,0.795544 0.666667,1.550112 3.117925,2.138807 16.092082,0.757861 17.562316,-1.869301 z M 91.217212,50.78787 C 101.03432,40.54102 90.066744,24.31516 77.010768,29.770295 c -5.31008,2.218693 -9.68178,9.932244 -8.27322,14.597502 3.108668,10.296144 15.402381,13.807163 22.479664,6.420073 z m -12.190645,1.591522 c -3.836612,-0.719857 -8.3599,-6.488618 -8.3599,-10.661769 0,-4.283674 6.829208,-11.050958 11.15208,-11.050958 4.327127,0 5.770016,2.365101 2.777737,4.553108 -1.28547,0.939958 -1.910142,2.400038 -1.388162,3.24462 1.267012,2.050067 5.730116,1.961158 6.579059,-0.131061 1.195181,-2.945524 3.648058,2.00363 2.808487,5.666666 -1.40268,6.119873 -7.04424,9.603682 -13.569301,8.379394 z m 5.882509,-3.561814 c -0.497771,-1.29717 0.05661,-1.648728 1.857348,-1.177825 1.742607,0.455702 2.566909,-0.01277 2.566909,-1.458844 0,-2.313241 -5.609256,-4.325138 -7.977661,-2.861383 -1.346552,0.832214 -1.053547,-2.58262 0.713845,-8.319527 0.282401,-0.916667 -0.367712,-1.666667 -1.444697,-1.666667 -1.076984,0 -1.958153,0.6 -1.958153,1.333333 0,0.733334 -0.835807,1.333334 -1.857349,1.333334 -4.108803,0 -3.906275,9.67578 0.272108,12.999999 2.934906,2.334939 8.741722,2.199614 7.82765,-0.18242 z M 98.666667,30.6237 c 0,-2.984739 -5.209149,-5.756098 -7.235162,-3.849234 -1.48006,1.393019 2.80598,6.558866 5.441812,6.558866 0.986342,0 1.79335,-1.219334 1.79335,-2.709632 z M 2.7569391,37.502007 c -1.97065387,-3.6822 -1.78007496,-6.835342 0.4131346,-6.835342 2.5706158,0 5.1358943,3.429579 4.6066939,6.158793 -0.652023,3.362639 -3.3851381,3.730996 -5.0198285,0.676549 z M 107.25978,37.101593 c -0.87225,-2.74821 1.98954,-6.434928 4.99506,-6.434928 1.50874,0 1.3444,3.678455 -0.30175,6.754322 -1.81213,3.385994 -3.55491,3.267392 -4.69331,-0.319394 z M 5.48482,27.223077 C 2.7441146,23.738835 1.6517702,18.62363 3.6666667,18.70907 c 0.55,0.02332 2.1646777,0.923323 3.5881728,2 4.2969695,3.250065 4.8446865,2.222679 1.467859,-2.753354 C 5.3750251,13.022644 3.1583106,5.7305781 4.5755525,4.3133362 5.0316753,3.8572135 7.0980058,5.3377721 9.1673982,7.6034666 c 2.0693928,2.2656945 5.8032978,5.1580954 8.2975668,6.4275574 2.494269,1.269462 4.770033,2.516804 5.057252,2.771872 0.829117,0.736305 -5.677896,5.770323 -7.522217,5.819411 -0.916667,0.0244 -1.666667,0.851366 -1.666667,1.837709 0,0.986342 -1.131831,2.817642 -2.51518,4.069556 C 8.4269114,30.693616 8.1641061,30.629237 5.48482,27.223077 Z M 8.6666667,23.999999 C 8.2134417,23.266666 7.2426213,22.666666 6.509288,22.666666 c -0.7333333,0 -0.9625129,0.6 -0.509288,1.333333 0.4532249,0.733333 1.4240453,1.333333 2.1573787,1.333333 0.7333333,0 0.9625129,-0.6 0.509288,-1.333333 z m 9.0000003,-6 c -0.492061,-1.968243 -4.682,-1.620667 -5.370732,0.445529 -0.406518,1.219554 0.396999,1.63878 2.555555,1.333334 1.731681,-0.245041 2.99851,-1.045529 2.815177,-1.778863 z M 12,14.20665 C 12,13.95364 10.841729,12.698412 9.4260651,11.417254 6.9562013,9.1820581 6.8816236,9.2006578 7.5815736,11.877271 7.9827675,13.411438 9.1410382,14.666666 10.155508,14.666666 11.169979,14.666666 12,14.459659 12,14.20665 Z m 40.755994,11.791947 c -4.437909,-5.818398 -8.518389,-7.95969 -19.156367,-10.052584 -4.675485,-0.919846 -8.158966,-2.267996 -7.896309,-3.055968 0.2585,-0.775499 4.56222,-3.5430087 9.563823,-6.1500216 8.601148,-4.4832236 9.796626,-4.7400235 22.066192,-4.7400235 12.269566,0 13.465045,0.2567999 22.066193,4.7400235 5.001603,2.6070129 9.305323,5.3745226 9.563822,6.1500216 0.263019,0.789056 -3.221893,2.129641 -7.913341,3.044124 -9.645317,1.880118 -15.818908,5.25859 -19.783608,10.826498 -1.529724,2.148299 -3.269247,3.905998 -3.865606,3.905998 -0.596359,0 -2.686519,-2.10063 -4.644799,-4.668068 z m 8.310673,-2.265265 c 0.88,-0.88 1.6,-2.679999 1.6,-3.999999 0,-1.76477 1.033509,-2.4 3.904762,-2.4 2.147619,0 4.804761,-0.9 5.904761,-2 1.156747,-1.156747 4.413917,-2 7.725247,-2 5.655484,0 5.687706,-0.02629 2.644405,-2.157905 C 76.840046,6.9688045 66.172936,3.9999998 57.064058,3.9999998 c -8.546149,0 -12.141509,0.9858624 -23.635776,6.4810262 l -4.571718,2.18564 5.238385,0.819818 C 41.269832,14.609367 52,18.924863 52,20.687599 c 0,2.130217 2.88783,4.645733 5.333333,4.645733 1.173334,0 2.853334,-0.72 3.733334,-1.6 z m 43.304193,5.266667 c -3.06174,-3.958827 -2.88628,-4.875981 1.44488,-7.552786 2.47446,-1.529301 4.8782,-2.780547 5.34164,-2.780547 1.49321,0 0.89877,4.023846 -1.19162,8.066213 -2.21289,4.279254 -3.60306,4.842568 -5.5949,2.26712 z m 4.96247,-5 c 0,-0.733333 -0.63541,-1.333333 -1.41202,-1.333333 -0.77661,0 -1.0412,0.6 -0.58798,1.333333 0.45323,0.733333 1.08864,1.333333 1.41203,1.333333 0.32338,0 0.58797,-0.6 0.58797,-1.333333 z M 94.737878,19.862997 c -2.692055,-2.240504 -2.925059,-2.928199 -1.333333,-3.935224 1.060833,-0.67115 2.392194,-1.22946 2.958579,-1.24069 0.566385,-0.01123 3.728656,-2.508145 7.027276,-5.5487011 3.29861,-3.0405563 6.35723,-5.1685331 6.79692,-4.7288375 1.6087,1.6087024 -1.05222,10.2881056 -4.3589,14.2178726 -3.95735,4.70304 -6.573983,4.994555 -11.090542,1.23558 z m 8.601272,-1.205748 c 1.09813,-1.776803 -2.72873,-3.176792 -5.635117,-2.061508 -1.966818,0.754739 -2.014604,1.058981 -0.333333,2.122235 2.576943,1.629685 4.93857,1.605656 5.96845,-0.06073 z m 3.85153,-6.099633 c 1.25164,-3.2617054 0.98027,-3.6926745 -1.19068,-1.89095 -2.2165,1.839534 -2.65363,4 -0.80932,4 0.65488,0 1.55488,-0.949072 2,-2.10905 z"
       id="path8706" />
  </g>
</svg>
